<?xml version="1.0" encoding="UTF-8"?>
<svg baseProfile="tiny" height="676" version="1.2" viewBox="0 0 878 676" width="878" xmlns="http://www.w3.org/2000/svg">
  <text fill="black" font-family="sans-serif" font-size="20" font-weight="bold" x="374.8837890625" y="30.427083333333144">
    CreateNote  </text>
  <path d="M-406,-524.4166666666669 L-406,0" fill="none" stroke="black" stroke-width="1" transform="translate(572.5 609.5)"/>
  <rect fill="white" height="32" stroke="black" stroke-width="1" width="77" x="128.5" y="53.5"/>
  <text fill="black" font-family="sans-serif" font-size="13.333333333333334" x="140.17447916666669" y="74.13541666666636">
    browser  </text>
  <rect fill="white" height="32" stroke="black" stroke-width="1" width="77" x="128.5" y="609.5"/>
  <text fill="black" font-family="sans-serif" font-size="13.333333333333334" x="140.17447916666669" y="630.59375">
    browser  </text>
  <path d="M33,-524.4166666666669 L33,0" fill="none" stroke="black" stroke-width="1" transform="translate(572.5 609.5)"/>
  <rect fill="white" height="32" stroke="black" stroke-width="1" width="65" x="572.5" y="53.5"/>
  <text fill="black" font-family="sans-serif" font-size="13.333333333333334" x="584.00390625" y="74.13541666666636">
    server  </text>
  <rect fill="white" height="32" stroke="black" stroke-width="1" width="65" x="572.5" y="609.5"/>
  <text fill="black" font-family="sans-serif" font-size="13.333333333333334" x="584.00390625" y="630.59375">
    server  </text>
  <rect fill="white" height="15.333333333333314" width="409.609375" x="181.24609375" y="98.41666666666652"/>
  <text fill="black" font-family="sans-serif" font-size="13.333333333333334" x="181.24609375" y="111.74999999999984">
    HTTP POST https://studies.cs.helsinki.fi/exampleapp/new_note  </text>
  <path d="M-405.005859375,-495 L32.107421875,-495" fill="none" stroke="black" stroke-width="1" transform="translate(572.5 609.5)"/>
  <path d="M32,-495 L32,-495 L24,-503 L24,-495 L24,-487 L32,-495" fill="black" stroke="black" stroke-width="1" transform="translate(572.5 609.5)"/>
  <path d="M-230,-481 L-230,-481 L287,-481 L295,-473 L295,-449 L-230,-449 L-230,-481" fill="white" stroke="black" stroke-width="1" transform="translate(572.5 609.5)"/>
  <path d="M287.12369791666674,-481.2291666666668 L287.12369791666674,-473.2291666666668 L295.12369791666674,-473.2291666666668" fill="none" stroke="black" stroke-width="1" transform="translate(572.5 609.5)"/>
  <text fill="black" font-family="sans-serif" font-size="13.333333333333334" x="348.3430989583333" y="149.36458333333323">
    The server responds with a 302 status indicating the redirect to be executed  </text>
  <rect fill="white" height="15.333333333333314" width="70.87890625" x="350.611328125" y="173.6458333333332"/>
  <text fill="black" font-family="sans-serif" font-size="13.333333333333334" x="350.611328125" y="186.97916666666654">
    302 Found  </text>
  <path d="M-405.005859375,-419 L32.107421875,-419" fill="none" stroke="black" stroke-width="1" transform="translate(572.5 609.5)"/>
  <path d="M-405,-419 L-405,-419 L-397,-427 L-397,-419 L-397,-411 L-405,-419" fill="black" stroke="black" stroke-width="1" transform="translate(572.5 609.5)"/>
  <path d="M-562,-406 L-562,-406 L-257,-406 L-249,-398 L-249,-374 L-562,-374 L-562,-406" fill="white" stroke="black" stroke-width="1" transform="translate(572.5 609.5)"/>
  <path d="M-256.98567708333337,-406.0000000000001 L-256.98567708333337,-398.0000000000001 L-248.98567708333337,-398.0000000000001" fill="none" stroke="black" stroke-width="1" transform="translate(572.5 609.5)"/>
  <text fill="black" font-family="sans-serif" font-size="13.333333333333334" x="16.225911458333258" y="224.59374999999986">
    which causes the entire page to reload again  </text>
  <rect fill="white" height="15.333333333333314" width="380.43619791666663" x="195.83268229166663" y="248.8749999999999"/>
  <text fill="black" font-family="sans-serif" font-size="13.333333333333334" x="195.83268229166663" y="262.2083333333332">
    HTTP GET https://studies.cs.helsinki.fi/exampleapp/notes  </text>
  <path d="M-405.005859375,-344 L32.107421875,-344" fill="none" stroke="black" stroke-width="1" transform="translate(572.5 609.5)"/>
  <path d="M32,-344 L32,-344 L24,-352 L24,-344 L24,-336 L32,-344" fill="black" stroke="black" stroke-width="1" transform="translate(572.5 609.5)"/>
  <rect fill="white" height="15.333333333333314" width="74.06901041666669" x="349.01627604166663" y="278.7291666666666"/>
  <text fill="black" font-family="sans-serif" font-size="13.333333333333334" x="349.01627604166663" y="292.0624999999999">
    HTML-code  </text>
  <path d="M-405.005859375,-314 L32.107421875,-314" fill="none" stroke="black" stroke-width="1" transform="translate(572.5 609.5)"/>
  <path d="M-405,-314 L-405,-314 L-397,-322 L-397,-314 L-397,-306 L-405,-314" fill="black" stroke="black" stroke-width="1" transform="translate(572.5 609.5)"/>
  <rect fill="white" height="15.333333333333314" width="402.2265625" x="184.9375" y="308.58333333333326"/>
  <text fill="black" font-family="sans-serif" font-size="13.333333333333334" x="184.9375" y="321.9166666666666">
    HTTP GET https://studies.cs.helsinki.fi/exampleapp/main.css  </text>
  <path d="M-405.005859375,-284 L32.107421875,-284" fill="none" stroke="black" stroke-width="1" transform="translate(572.5 609.5)"/>
  <path d="M32,-284 L32,-284 L24,-292 L24,-284 L24,-276 L32,-284" fill="black" stroke="black" stroke-width="1" transform="translate(572.5 609.5)"/>
  <rect fill="white" height="15.333333333333314" width="58.776041666666686" x="356.66276041666663" y="338.43749999999994"/>
  <text fill="black" font-family="sans-serif" font-size="13.333333333333334" x="356.66276041666663" y="351.77083333333326">
    main.css  </text>
  <path d="M-405.005859375,-255 L32.107421875,-255" fill="none" stroke="black" stroke-width="1" transform="translate(572.5 609.5)"/>
  <path d="M-405,-255 L-405,-255 L-397,-263 L-397,-255 L-397,-247 L-405,-255" fill="black" stroke="black" stroke-width="1" transform="translate(572.5 609.5)"/>
  <rect fill="white" height="15.333333333333371" width="391.6536458333334" x="190.22395833333331" y="368.29166666666663"/>
  <text fill="black" font-family="sans-serif" font-size="13.333333333333334" x="190.22395833333331" y="381.62499999999994">
    HTTP GET https://studies.cs.helsinki.fi/exampleapp/main.js  </text>
  <path d="M-405.005859375,-225 L32.107421875,-225" fill="none" stroke="black" stroke-width="1" transform="translate(572.5 609.5)"/>
  <path d="M32,-225 L32,-225 L24,-233 L24,-225 L24,-217 L32,-225" fill="black" stroke="black" stroke-width="1" transform="translate(572.5 609.5)"/>
  <rect fill="white" height="15.333333333333371" width="48.203125" x="361.94921875" y="398.14583333333326"/>
  <text fill="black" font-family="sans-serif" font-size="13.333333333333334" x="361.94921875" y="411.4791666666666">
    main.js  </text>
  <path d="M-405.005859375,-195 L32.107421875,-195" fill="none" stroke="black" stroke-width="1" transform="translate(572.5 609.5)"/>
  <path d="M-405,-195 L-405,-195 L-397,-203 L-397,-195 L-397,-187 L-405,-195" fill="black" stroke="black" stroke-width="1" transform="translate(572.5 609.5)"/>
  <path d="M-533,-182 L-533,-182 L-286,-182 L-278,-174 L-278,-134 L-533,-134 L-533,-182" fill="white" stroke="black" stroke-width="1" transform="translate(572.5 609.5)"/>
  <path d="M-286.4453125,-181.50000000000006 L-286.4453125,-173.50000000000006 L-278.4453125,-173.50000000000006" fill="none" stroke="black" stroke-width="1" transform="translate(572.5 609.5)"/>
  <text fill="black" font-family="sans-serif" font-size="13.333333333333334" x="45.685546875" y="449.09374999999994">
    browser starts executing js-code  </text>
  <text fill="black" font-family="sans-serif" font-size="13.333333333333334" x="45.685546875" y="464.6145833333333">
    that requests JSON data from server  </text>
  <rect fill="white" height="15.333333333333314" width="404.98046875" x="183.560546875" y="488.8958333333333"/>
  <text fill="black" font-family="sans-serif" font-size="13.333333333333334" x="183.560546875" y="502.22916666666663">
    HTTP GET https://studies.cs.helsinki.fi/exampleapp/data.json  </text>
  <path d="M-405.005859375,-104 L32.107421875,-104" fill="none" stroke="black" stroke-width="1" transform="translate(572.5 609.5)"/>
  <path d="M32,-104 L32,-104 L24,-112 L24,-104 L24,-96 L32,-104" fill="black" stroke="black" stroke-width="1" transform="translate(572.5 609.5)"/>
  <rect fill="white" height="15.333333333333258" width="353.5481770833334" x="209.27669270833331" y="518.75"/>
  <text fill="black" font-family="sans-serif" font-size="13.333333333333334" x="209.27669270833331" y="532.0833333333334">
    [{ content: &#34;HTML is easy&#34;, date: &#34;2019-05-23&#34; }, ...]  </text>
  <path d="M-405.005859375,-74 L32.107421875,-74" fill="none" stroke="black" stroke-width="1" transform="translate(572.5 609.5)"/>
  <path d="M-405,-74 L-405,-74 L-397,-82 L-397,-74 L-397,-66 L-405,-74" fill="black" stroke="black" stroke-width="1" transform="translate(572.5 609.5)"/>
  <path d="M-532,-61 L-532,-61 L-287,-61 L-279,-53 L-279,-13 L-532,-13 L-532,-61" fill="white" stroke="black" stroke-width="1" transform="translate(572.5 609.5)"/>
  <path d="M-286.83919270833337,-60.89583333333337 L-286.83919270833337,-52.89583333333337 L-278.83919270833337,-52.89583333333337" fill="none" stroke="black" stroke-width="1" transform="translate(572.5 609.5)"/>
  <text fill="black" font-family="sans-serif" font-size="13.333333333333334" x="46.07942708333326" y="569.6979166666667">
    browser executes the event handler  </text>
  <text fill="black" font-family="sans-serif" font-size="13.333333333333334" x="46.07942708333326" y="585.21875">
    that renders notes to display  </text>
  <text fill="black" font-family="Arial" font-size="14" x="659.9368489583333" y="666.4270833333331">
    www.websequencediagrams.com  </text>
</svg>
